<svg id="Layer_1" data-name="Layer 1" xmlns="http://www.w3.org/2000/svg" viewBox="0 0 12.99 14.89"><defs><style>.cls-1{fill:#aaa;}.cls-2{fill:#ddd;}.cls-3{fill:#777;}</style></defs><circle class="cls-1" cx="3.82" cy="5.79" r="0.37"/><circle class="cls-1" cx="5" cy="5.09" r="0.37"/><circle class="cls-1" cx="3.81" cy="7.14" r="0.37"/><circle class="cls-1" cx="5" cy="6.51" r="0.37"/><circle class="cls-1" cx="3.81" cy="8.49" r="0.37"/><circle class="cls-1" cx="5.01" cy="7.78" r="0.37"/><circle class="cls-1" cx="6.04" cy="4.51" r="0.37"/><circle class="cls-1" cx="6.04" cy="5.93" r="0.37"/><circle class="cls-1" cx="6.04" cy="7.21" r="0.37"/><circle class="cls-1" cx="0.39" cy="7.72" r="0.37"/><circle class="cls-1" cx="1.57" cy="7.02" r="0.37"/><circle class="cls-1" cx="0.38" cy="9.07" r="0.37"/><circle class="cls-1" cx="1.57" cy="8.44" r="0.37"/><circle class="cls-1" cx="0.37" cy="10.42" r="0.37"/><circle class="cls-1" cx="1.58" cy="9.71" r="0.37"/><circle class="cls-1" cx="2.61" cy="6.44" r="0.37"/><circle class="cls-1" cx="2.61" cy="7.86" r="0.37"/><circle class="cls-1" cx="2.61" cy="9.14" r="0.37"/><circle class="cls-1" cx="3.82" cy="1.67" r="0.37"/><circle class="cls-1" cx="5" cy="0.97" r="0.37"/><circle class="cls-1" cx="3.81" cy="3.02" r="0.37"/><circle class="cls-1" cx="5" cy="2.39" r="0.37"/><circle class="cls-1" cx="3.81" cy="4.36" r="0.37"/><circle class="cls-1" cx="5.01" cy="3.65" r="0.37"/><circle class="cls-1" cx="6.04" cy="0.38" r="0.37"/><circle class="cls-1" cx="6.04" cy="1.81" r="0.37"/><circle class="cls-1" cx="6.04" cy="3.08" r="0.37"/><circle class="cls-1" cx="0.39" cy="3.58" r="0.37"/><circle class="cls-1" cx="1.57" cy="2.88" r="0.37"/><circle class="cls-1" cx="0.38" cy="4.93" r="0.37"/><circle class="cls-1" cx="1.57" cy="4.3" r="0.37"/><circle class="cls-1" cx="0.37" cy="6.27" r="0.37"/><circle class="cls-1" cx="1.58" cy="5.56" r="0.37"/><circle class="cls-1" cx="2.61" cy="2.3" r="0.37"/><circle class="cls-1" cx="2.61" cy="3.72" r="0.37"/><circle class="cls-1" cx="2.61" cy="5" r="0.37"/><circle class="cls-2" cx="5.37" cy="8.79" r="0.37"/><circle class="cls-2" cx="6.53" cy="9.48" r="0.37"/><circle class="cls-2" cx="7.65" cy="8.84" r="0.37"/><circle class="cls-2" cx="8.76" cy="9.46" r="0.37"/><circle class="cls-2" cx="7.66" cy="10.16" r="0.37"/><circle class="cls-2" cx="6.54" cy="10.69" r="0.37"/><circle class="cls-2" cx="5.38" cy="10.16" r="0.37"/><circle class="cls-2" cx="4.3" cy="9.32" r="0.37"/><circle class="cls-2" cx="6.54" cy="8.16" r="0.37"/><circle class="cls-2" cx="2" cy="10.7" r="0.37"/><circle class="cls-2" cx="3.15" cy="11.39" r="0.37"/><circle class="cls-2" cx="4.28" cy="10.75" r="0.37"/><circle class="cls-2" cx="5.38" cy="11.37" r="0.37"/><circle class="cls-2" cx="4.28" cy="12.07" r="0.37"/><circle class="cls-2" cx="3.16" cy="12.6" r="0.37"/><circle class="cls-2" cx="2.01" cy="12.07" r="0.37"/><circle class="cls-2" cx="0.93" cy="11.23" r="0.37"/><circle class="cls-2" cx="3.16" cy="10.08" r="0.37"/><circle class="cls-2" cx="5.37" cy="12.62" r="0.37"/><circle class="cls-2" cx="6.53" cy="13.3" r="0.37"/><circle class="cls-2" cx="7.65" cy="12.67" r="0.37"/><circle class="cls-2" cx="8.76" cy="13.28" r="0.37"/><circle class="cls-2" cx="7.66" cy="13.98" r="0.37"/><circle class="cls-2" cx="6.54" cy="14.51" r="0.37"/><circle class="cls-2" cx="5.38" cy="13.98" r="0.37"/><circle class="cls-2" cx="4.3" cy="13.14" r="0.37"/><circle class="cls-2" cx="6.54" cy="11.99" r="0.37"/><circle class="cls-2" cx="8.73" cy="10.76" r="0.37"/><circle class="cls-2" cx="9.88" cy="11.45" r="0.37"/><circle class="cls-2" cx="11.01" cy="10.81" r="0.37"/><circle class="cls-2" cx="12.11" cy="11.43" r="0.37"/><circle class="cls-2" cx="11.01" cy="12.12" r="0.37"/><circle class="cls-2" cx="9.89" cy="12.66" r="0.37"/><circle class="cls-2" cx="8.74" cy="12.12" r="0.37"/><circle class="cls-2" cx="7.66" cy="11.29" r="0.37"/><circle class="cls-2" cx="9.89" cy="10.13" r="0.37"/><circle class="cls-3" cx="9.25" cy="5.79" r="0.37"/><circle class="cls-3" cx="8.07" cy="5.09" r="0.37"/><circle class="cls-3" cx="9.26" cy="7.14" r="0.37"/><circle class="cls-3" cx="8.07" cy="6.51" r="0.37"/><circle class="cls-3" cx="9.27" cy="8.48" r="0.37"/><circle class="cls-3" cx="8.07" cy="7.78" r="0.37"/><circle class="cls-3" cx="7.03" cy="4.51" r="0.37"/><circle class="cls-3" cx="7.03" cy="5.94" r="0.37"/><circle class="cls-3" cx="7.03" cy="7.21" r="0.37"/><circle class="cls-3" cx="12.59" cy="7.71" r="0.37"/><circle class="cls-3" cx="11.41" cy="7.01" r="0.37"/><circle class="cls-3" cx="12.6" cy="9.06" r="0.37"/><circle class="cls-3" cx="11.41" cy="8.43" r="0.37"/><circle class="cls-3" cx="12.61" cy="10.4" r="0.37"/><circle class="cls-3" cx="11.41" cy="9.7" r="0.37"/><circle class="cls-3" cx="10.36" cy="6.43" r="0.37"/><circle class="cls-3" cx="10.37" cy="7.86" r="0.37"/><circle class="cls-3" cx="10.37" cy="9.13" r="0.37"/><circle class="cls-3" cx="12.59" cy="3.57" r="0.37"/><circle class="cls-3" cx="11.41" cy="2.87" r="0.37"/><circle class="cls-3" cx="12.6" cy="4.92" r="0.37"/><circle class="cls-3" cx="11.41" cy="4.29" r="0.37"/><circle class="cls-3" cx="12.61" cy="6.26" r="0.37"/><circle class="cls-3" cx="11.41" cy="5.55" r="0.37"/><circle class="cls-3" cx="10.36" cy="2.29" r="0.37"/><circle class="cls-3" cx="10.37" cy="3.71" r="0.37"/><circle class="cls-3" cx="10.37" cy="4.99" r="0.37"/><circle class="cls-3" cx="9.25" cy="1.65" r="0.37"/><circle class="cls-3" cx="8.07" cy="0.96" r="0.37"/><circle class="cls-3" cx="9.26" cy="3" r="0.37"/><circle class="cls-3" cx="8.07" cy="2.37" r="0.37"/><circle class="cls-3" cx="9.27" cy="4.35" r="0.37"/><circle class="cls-3" cx="8.07" cy="3.64" r="0.37"/><circle class="cls-3" cx="7.03" cy="0.37" r="0.37"/><circle class="cls-3" cx="7.03" cy="1.8" r="0.37"/><circle class="cls-3" cx="7.03" cy="3.08" r="0.37"/></svg>